# Created by Kenney (www.kenney.nl)
# low-detail-building-d simplified for 3DS

g building-d

v -0.35 0 -0.35 0.75 0.45 0.35
v 0.35 0 -0.35 0.75 0.45 0.35
v 0.35 0 0.35 0.75 0.45 0.35
v -0.35 0 0.35 0.75 0.45 0.35
v -0.35 1.2 -0.35 0.85 0.55 0.4
v 0.35 1.2 -0.35 0.85 0.55 0.4
v 0.35 1.2 0.35 0.85 0.55 0.4
v -0.35 1.2 0.35 0.85 0.55 0.4
v -0.15 1.2 -0.15 0.4 0.3 0.25
v 0.15 1.2 -0.15 0.4 0.3 0.25
v 0.15 1.45 -0.15 0.4 0.3 0.25
v -0.15 1.45 -0.15 0.4 0.3 0.25
v -0.15 1.2 0.15 0.4 0.3 0.25
v 0.15 1.2 0.15 0.4 0.3 0.25
v 0.15 1.45 0.15 0.4 0.3 0.25
v -0.15 1.45 0.15 0.4 0.3 0.25

f 1 2 6
f 1 6 5
f 2 3 7
f 2 7 6
f 3 4 8
f 3 8 7
f 4 1 5
f 4 5 8
f 5 6 7
f 5 7 8
f 9 10 11
f 9 11 12
f 10 14 15
f 10 15 11
f 14 13 16
f 14 16 15
f 13 9 12
f 13 12 16
f 12 11 15
f 12 15 16
