# Created by Kenney (www.kenney.nl)

mtllib road-straight.mtl

g road-straight

v 0.5 0.01 -0.4 0.3 0.3 0.35
v -0.5 0.01 -0.4 0.3 0.3 0.35
v 0.5 0.02 -0.4 0.3 0.3 0.35
v -0.5 0.02 -0.4 0.3 0.3 0.35
v -0.5 0 -0.5 0.25 0.25 0.3
v 0.5 0 -0.5 0.25 0.25 0.3
v -0.5 0.02 -0.5 0.3 0.3 0.35
v 0.5 0.02 -0.5 0.3 0.3 0.35
v -0.5 0.01 0.4 0.3 0.3 0.35
v 0.5 0.01 0.4 0.3 0.3 0.35
v -0.5 0.02 0.4 0.3 0.3 0.35
v 0.5 0.02 0.4 0.3 0.3 0.35
v 0.5 0 0.5 0.25 0.25 0.3
v -0.5 0 0.5 0.25 0.25 0.3
v 0.5 0.02 0.5 0.3 0.3 0.35
v -0.5 0.02 0.5 0.3 0.3 0.35

f 1 2 4
f 1 4 3
f 5 6 8
f 5 8 7
f 9 10 12
f 9 12 11
f 13 14 16
f 13 16 15
f 2 5 7
f 2 7 4
f 6 13 15
f 6 15 8
f 10 1 3
f 10 3 12
f 14 9 11
f 14 11 16
f 3 4 7
f 3 7 8
f 3 8 15
f 3 15 12
f 11 12 15
f 11 15 16
f 4 7 11
f 7 16 11
